<svg width="183" height="55" viewBox="0 0 183 55" fill="none" xmlns="http://www.w3.org/2000/svg">
<g clip-path="url(#clip0_0_2001)">
<rect y="0.80957" width="182.249" height="54" rx="8" fill="#090B0B"/>
<path d="M6.74997 1.48457H175.499C178.854 1.48457 181.574 4.20442 181.574 7.55954V48.0593C181.574 51.4144 178.854 54.1343 175.499 54.1343H6.74997C3.39485 54.1343 0.674997 51.4144 0.674997 48.0593V7.55954C0.674997 4.20442 3.39485 1.48457 6.74997 1.48457Z" fill="#090B0B" stroke="#090B0B" stroke-width="1.34999"/>
<path d="M175.498 1.48475H175.499C175.499 1.48475 175.499 1.48475 175.5 1.48475C177.109 1.49011 178.651 2.1318 179.789 3.26985C180.927 4.40791 181.569 5.9499 181.574 7.55928C181.574 7.55943 181.574 7.55957 181.574 7.55972L175.499 1.21448H175.498M175.498 1.48475C175.498 1.48475 175.497 1.48475 175.497 1.48475L175.498 1.21448M175.498 1.48475H6.75097M175.498 1.48475H6.75097M175.498 1.21448H6.75115M175.498 1.21448H6.75115M6.75115 1.21448L6.74997 1.21448L6.75115 1.21448ZM6.75115 1.21448L6.75194 1.48475C6.75162 1.48475 6.75129 1.48475 6.75097 1.48475M6.75115 1.21448L0.674997 7.55972C0.674997 7.55957 0.675001 7.55943 0.675001 7.55928C0.680349 5.94989 1.32204 4.40791 2.4601 3.26985C2.46011 3.26984 2.46012 3.26983 2.46013 3.26982C3.59818 2.13178 5.14014 1.49011 6.74951 1.48475C6.74966 1.48475 6.74981 1.48475 6.74997 1.48475H6.75097M0.404998 7.5609V48.0583V7.5609ZM0.674997 48.0585V7.56072V48.0585Z" fill="#090B0B" stroke="#090B0B" stroke-width="1.34999"/>
<path d="M-nan -nanL64.0145 14.6379C64.0391 15.1333 63.9625 15.6285 63.7896 16.0933C63.6166 16.5582 63.3509 16.983 63.0085 17.3418C62.6248 17.7398 62.1614 18.0522 61.6487 18.2587C61.1359 18.4652 60.5854 18.5612 60.033 18.5402C59.4771 18.5452 58.9258 18.439 58.4115 18.2279C57.8972 18.0168 57.4304 17.705 57.0383 17.3108C56.6463 16.9167 56.337 16.4481 56.1286 15.9327C55.9202 15.4173 55.817 14.8655 55.8249 14.3096C55.817 13.7537 55.9203 13.2019 56.1287 12.6865C56.3371 12.1711 56.6464 11.7025 57.0384 11.3083C57.4304 10.9142 57.8973 10.6023 58.4115 10.3911C58.9258 10.1798 59.4771 10.0735 60.033 10.0783C60.6045 10.0766 61.1704 10.1922 61.6955 10.4179C62.0389 10.5571 62.3558 10.752 62.6338 10.9939C62.8315 11.166 62.8188 11.4667 62.6335 11.6521C62.4272 11.8586 62.0902 11.8407 61.8612 11.6598C61.6758 11.5135 61.4717 11.3912 61.2536 11.2967C60.8691 11.1301 60.4515 11.054 60.033 11.0744C59.6117 11.0722 59.1943 11.1551 58.8057 11.318C58.4172 11.481 58.0656 11.7207 57.7719 12.0227C57.4782 12.3248 57.2485 12.6831 57.0965 13.076C56.9446 13.469 56.8735 13.8885 56.8875 14.3096C56.8775 14.9403 57.0549 15.5598 57.3974 16.0895C57.7399 16.6193 58.232 17.0353 58.8113 17.285C59.3905 17.5347 60.0309 17.6067 60.6512 17.492C61.2715 17.3773 61.8437 17.0809 62.2953 16.6405C62.3674 16.5629 62.4342 16.4812 62.4955 16.396C62.9735 15.7322 62.2948 14.9997 61.4767 14.9997H60.5195C60.2508 14.9997 60.033 14.7819 60.033 14.5133C60.033 14.2446 60.2508 14.0268 60.5195 14.0268H63.6786C63.8404 14.0268 63.9809 14.1422 63.9971 14.3032C64.0084 14.4144 64.0142 14.5261 64.0145 14.6379L-nan -nanZ" fill="white" stroke="white" stroke-miterlimit="10"/>
<path d="M70.2371 10.7573C70.2371 11.0322 70.0143 11.255 69.7394 11.255H67.8324C67.1232 11.255 66.5483 11.8299 66.5483 12.539C66.5483 13.2482 67.1232 13.8231 67.8324 13.8231H69.3881C69.6568 13.8231 69.8746 14.0409 69.8746 14.3096C69.8746 14.5783 69.6568 14.7962 69.3881 14.7962H67.8324C67.1232 14.7962 66.5483 15.371 66.5483 16.0802C66.5483 16.7894 67.1232 17.3643 67.8324 17.3643H69.7394C70.0143 17.3643 70.2371 17.5871 70.2371 17.8619C70.2371 18.1368 70.0143 18.3596 69.7394 18.3596H67.8726C66.5668 18.3596 65.5082 17.301 65.5082 15.9952V12.6241C65.5082 11.3182 66.5668 10.2596 67.8726 10.2596H69.7394C70.0143 10.2596 70.2371 10.4825 70.2371 10.7573Z" fill="white"/>
<path d="M74.6259 17.8388C74.6259 18.1265 74.3927 18.3596 74.1051 18.3596C73.8175 18.3596 73.5843 18.1264 73.5843 17.8388V12.3861C73.5843 11.7614 73.0779 11.255 72.4532 11.255H71.8197C71.5448 11.255 71.322 11.0322 71.322 10.7573C71.322 10.4825 71.5448 10.2596 71.8197 10.2596H76.3905C76.6654 10.2596 76.8882 10.4825 76.8882 10.7573C76.8882 11.0322 76.6654 11.255 76.3905 11.255H75.757C75.1323 11.255 74.6259 11.7614 74.6259 12.3862V17.8388Z" fill="white" stroke="url(#paint0_linear_0_2001)" stroke-width="0.269999" stroke-miterlimit="10"/>
<path d="M81.4359 18.3596C81.1486 18.3596 80.9158 18.1268 80.9158 17.8395V10.7797C80.9158 10.4925 81.1486 10.2596 81.4359 10.2596C81.7231 10.2596 81.9559 10.4925 81.9559 10.7797V17.8395C81.9559 18.1268 81.7231 18.3596 81.4359 18.3596Z" fill="white" stroke="url(#paint1_linear_0_2001)" stroke-width="0.269999" stroke-miterlimit="10"/>
<path d="M86.5728 17.8388C86.5728 18.1265 86.3396 18.3596 86.052 18.3596C85.7644 18.3596 85.5312 18.1264 85.5312 17.8388V12.3861C85.5312 11.7614 85.0248 11.255 84.4001 11.255H83.7667C83.4919 11.255 83.269 11.0322 83.269 10.7573C83.269 10.4825 83.4919 10.2596 83.7667 10.2596H88.3374C88.6122 10.2596 88.8351 10.4825 88.8351 10.7573C88.8351 11.0322 88.6122 11.255 88.3374 11.255H87.7039C87.0792 11.255 86.5728 11.7614 86.5728 12.3862V17.8388Z" fill="white" stroke="url(#paint2_linear_0_2001)" stroke-width="0.269999" stroke-miterlimit="10"/>
<path d="M99.3721 17.3128C98.5836 18.0989 97.5158 18.5403 96.4025 18.5403C95.2892 18.5403 94.2213 18.0989 93.4329 17.3128C93.0429 16.9178 92.7363 16.4484 92.5313 15.9324C92.3263 15.4165 92.2272 14.8647 92.2398 14.3097C92.2272 13.7547 92.3263 13.2028 92.5313 12.6869C92.7363 12.1709 93.0429 11.7015 93.4329 11.3065C93.8226 10.9167 94.2853 10.6076 94.7946 10.3968C95.3039 10.1861 95.8498 10.0779 96.4009 10.0784C96.9521 10.0789 97.4978 10.188 98.0067 10.3997C98.5156 10.6113 98.9778 10.9212 99.3668 11.3117C99.7571 11.7057 100.064 12.1741 100.27 12.6891C100.476 13.2041 100.576 13.7552 100.565 14.3097C100.577 14.8646 100.478 15.4164 100.273 15.9323C100.068 16.4481 99.7618 16.9176 99.3721 17.3128ZM94.2014 16.6346C94.7854 17.2175 95.5767 17.5449 96.4018 17.5449C97.2269 17.5449 98.0182 17.2175 98.6022 16.6346C98.9016 16.3281 99.1358 15.964 99.2905 15.5644C99.4453 15.1648 99.5174 14.7379 99.5026 14.3097C99.5174 13.8814 99.4453 13.4545 99.2905 13.0549C99.1358 12.6553 98.9016 12.2913 98.6022 11.9847C98.0182 11.4018 97.2269 11.0744 96.4018 11.0744C95.5767 11.0744 94.7854 11.4018 94.2014 11.9847C93.9024 12.2915 93.6686 12.6557 93.5141 13.0552C93.3596 13.4548 93.2876 13.8815 93.3023 14.3097C93.2876 14.7378 93.3596 15.1645 93.5141 15.5641C93.6686 15.9637 93.9024 16.3278 94.2014 16.6346Z" fill="white" stroke="url(#paint3_linear_0_2001)" stroke-width="0.269999" stroke-miterlimit="10"/>
<path d="M102.546 18.3596C102.259 18.3596 102.026 18.1268 102.026 17.8395V11.0747C102.026 10.6246 102.391 10.2596 102.841 10.2596C103.122 10.2596 103.383 10.4045 103.532 10.6429L107.221 16.5474C107.226 16.5557 107.235 16.5607 107.245 16.5607C107.261 16.5607 107.274 16.5476 107.273 16.5316L107.229 14.9997V10.7804C107.229 10.4928 107.463 10.2596 107.75 10.2596C108.038 10.2596 108.271 10.4928 108.271 10.7804V17.661C108.271 18.0468 107.958 18.3596 107.572 18.3596C107.331 18.3596 107.107 18.2352 106.979 18.0306L103.074 11.7666C103.069 11.7583 103.06 11.7533 103.05 11.7533C103.034 11.7533 103.022 11.7664 103.022 11.7824L103.066 13.3143V17.8395C103.066 18.1268 102.833 18.3596 102.546 18.3596Z" fill="white" stroke="url(#paint4_linear_0_2001)" stroke-width="0.269999" stroke-miterlimit="10"/>
<mask id="path-11-inside-1_0_2001" fill="white">
<path d="M91.9829 30.1742C90.8482 30.1785 89.7402 30.5189 88.7989 31.1524C87.8575 31.786 87.125 32.6842 86.6937 33.7338C86.2625 34.7833 86.1519 35.9371 86.3759 37.0495C86.5999 38.1618 87.1485 39.1829 87.9523 39.9837C88.7562 40.7845 89.7793 41.3292 90.8925 41.549C92.0057 41.7687 93.1591 41.6538 94.207 41.2185C95.2549 40.7833 96.1503 40.0473 96.7803 39.1036C97.4102 38.1598 97.7464 37.0506 97.7464 35.9159C97.7576 35.1569 97.6159 34.4035 97.33 33.7004C97.044 32.9973 96.6195 32.3589 96.0818 31.8233C95.5441 31.2876 94.9041 30.8655 94.1999 30.5822C93.4957 30.2989 92.7418 30.1602 91.9829 30.1742ZM91.9829 39.3957C91.2841 39.4456 90.5865 39.2839 89.9809 38.9317C89.3753 38.5795 88.8898 38.0531 88.5875 37.4211C88.2853 36.7891 88.1803 36.0807 88.2863 35.3882C88.3923 34.6957 88.7043 34.0512 89.1817 33.5385C89.6591 33.0258 90.2798 32.6687 90.963 32.5137C91.6463 32.3588 92.3603 32.4131 93.0122 32.6696C93.6641 32.9261 94.2237 33.373 94.6181 33.952C95.0125 34.531 95.2234 35.2153 95.2234 35.9159C95.2446 36.3584 95.1771 36.8008 95.0247 37.2169C94.8724 37.633 94.6384 38.0144 94.3364 38.3386C94.0344 38.6629 93.6707 38.9235 93.2665 39.105C92.8623 39.2866 92.4259 39.3854 91.9829 39.3957ZM79.4099 30.1742C78.2752 30.1785 77.1672 30.5189 76.2258 31.1524C75.2844 31.7859 74.5519 32.6841 74.1206 33.7337C73.6893 34.7832 73.5787 35.937 73.8027 37.0494C74.0267 38.1617 74.5753 39.1828 75.3791 39.9836C76.183 40.7845 77.2061 41.3292 78.3193 41.549C79.4325 41.7687 80.5859 41.6538 81.6338 41.2185C82.6817 40.7833 83.5772 40.0474 84.2071 39.1036C84.8371 38.1598 85.1733 37.0506 85.1732 35.9159C85.1844 35.1569 85.0428 34.4035 84.7568 33.7004C84.4708 32.9974 84.0464 32.359 83.5087 31.8233C82.971 31.2876 82.331 30.8656 81.6268 30.5823C80.9227 30.299 80.1687 30.1602 79.4099 30.1742ZM79.4099 39.3957C78.7111 39.4456 78.0135 39.2839 77.4079 38.9317C76.8023 38.5795 76.3167 38.0531 76.0145 37.4211C75.7122 36.7891 75.6073 36.0807 75.7132 35.3882C75.8192 34.6957 76.1312 34.0512 76.6087 33.5385C77.0861 33.0258 77.7068 32.6687 78.39 32.5137C79.0732 32.3588 79.7873 32.4131 80.4392 32.6696C81.0911 32.9261 81.6506 33.373 82.045 33.952C82.4394 34.531 82.6504 35.2153 82.6504 35.9159C82.6716 36.3584 82.6041 36.8008 82.4517 37.2169C82.2994 37.633 82.0654 38.0144 81.7634 38.3386C81.4614 38.6629 81.0976 38.9235 80.6934 39.105C80.2893 39.2866 79.8528 39.3854 79.4099 39.3957ZM65.6714 31.9359C64.9988 31.9359 64.4535 32.4812 64.4535 33.1538C64.4535 33.8265 64.9988 34.3717 65.6714 34.3717H67.2609C68.8925 34.3717 70.2144 35.8658 69.2039 37.1469C69.1251 37.2468 69.0423 37.3441 68.9556 37.4384C68.3715 38.0338 67.6691 38.5001 66.8936 38.8073C66.1182 39.1144 65.2869 39.2556 64.4535 39.2217C62.7498 39.1987 61.1237 38.5057 59.9271 37.2927C58.7304 36.0798 58.0595 34.4444 58.0595 32.7405C58.0595 31.0367 58.7304 29.4013 59.9271 28.1884C61.1237 26.9754 62.7498 26.2824 64.4535 26.2594C65.6865 26.2433 66.8868 26.5942 67.9076 27.2541C68.4675 27.6161 69.2246 27.6216 69.6961 27.1501C70.1753 26.6709 70.1777 25.8849 69.6323 25.4825C69.0554 25.0567 68.4255 24.7047 67.7572 24.436C66.7077 24.0139 65.5845 23.8057 64.4535 23.8234C63.2716 23.8062 62.098 24.0242 61.0011 24.4646C59.9041 24.905 58.9057 25.5591 58.0638 26.3888C57.2219 27.2185 56.5533 28.2074 56.097 29.2978C55.6407 30.3882 55.4057 31.5585 55.4057 32.7405C55.4057 33.9226 55.6407 35.0929 56.097 36.1833C56.5533 37.2737 57.2219 38.2626 58.0638 39.0923C58.9057 39.922 59.9041 40.5761 61.0011 41.0165C62.098 41.4569 63.2716 41.6749 64.4535 41.6577C65.6084 41.7055 66.7603 41.5073 67.8327 41.0761C68.9051 40.6449 69.8735 39.9906 70.6738 39.1565C72.0945 37.6057 72.8518 35.5604 72.7835 33.4583C72.7932 32.5717 72.0092 31.9359 71.1225 31.9359H65.6714ZM125.619 33.828C125.274 32.788 124.618 31.8794 123.738 31.2257C122.859 30.572 121.799 30.2049 120.704 30.1742C119.966 30.1788 119.237 30.3329 118.561 30.6273C117.884 30.9216 117.275 31.3501 116.768 31.8868C116.262 32.4235 115.87 33.0572 115.616 33.7497C115.361 34.4422 115.25 35.1791 115.289 35.9159C115.272 36.6708 115.408 37.4212 115.688 38.1225C115.968 38.8238 116.386 39.4614 116.918 39.9974C117.45 40.5333 118.084 40.9566 118.783 41.2418C119.483 41.5271 120.232 41.6685 120.987 41.6577C121.933 41.6629 122.865 41.4331 123.7 40.989C124.196 40.7255 124.648 40.3915 125.043 39.999C125.493 39.5518 125.344 38.8277 124.816 38.4757C124.27 38.1121 123.537 38.3007 123.02 38.7035C122.891 38.8041 122.754 38.8952 122.611 38.9759C122.115 39.2542 121.555 39.3989 120.987 39.3957C120.402 39.4181 119.824 39.2642 119.327 38.954C118.517 38.4473 118.93 37.3551 119.814 36.9897L125.231 34.7492C125.591 34.6003 125.764 34.1896 125.619 33.828ZM118.946 35.2618C118.379 35.4973 117.756 35.0896 117.956 34.5092C118.093 34.1134 118.308 33.749 118.587 33.4371C118.867 33.1252 119.205 32.8722 119.584 32.6928C119.962 32.5135 120.373 32.4115 120.791 32.3927C121.227 32.364 121.661 32.4642 122.04 32.6808C122.65 33.0292 122.37 33.84 121.722 34.1093L118.946 35.2618ZM111.548 40.0482C111.548 40.7449 112.113 41.3096 112.809 41.3096C113.506 41.3096 114.071 40.7449 114.071 40.0482V25.694C114.071 24.9973 113.506 24.4326 112.809 24.4326C112.113 24.4326 111.548 24.9973 111.548 25.694V40.0482ZM107.415 31.3969C107.415 31.4303 107.388 31.4574 107.355 31.4574C107.338 31.4574 107.322 31.4503 107.311 31.4379C106.93 31.0304 106.469 30.7072 105.956 30.4893C105.434 30.268 104.872 30.1606 104.305 30.1742C102.825 30.2372 101.426 30.8697 100.401 31.9396C99.3752 33.0095 98.8028 34.4341 98.8028 35.9159C98.8028 37.3978 99.3752 38.8224 100.401 39.8923C101.426 40.9622 102.825 41.5946 104.305 41.6577C104.874 41.6728 105.439 41.5639 105.961 41.3385C106.475 41.1167 106.935 40.7874 107.311 40.3727C107.322 40.3601 107.338 40.3528 107.355 40.3528C107.389 40.3528 107.415 40.3796 107.415 40.4128V41.1792C107.415 43.3759 106.241 44.5503 104.349 44.5503C103.718 44.5352 103.106 44.3327 102.591 43.9686C102.408 43.8392 102.24 43.6914 102.09 43.5283C101.641 43.0414 100.951 42.7161 100.339 42.9705C99.7422 43.2187 99.4487 43.913 99.8155 44.4454C100.207 45.014 100.705 45.5063 101.286 45.8933C102.193 46.4977 103.259 46.8177 104.349 46.8122C107.307 46.8122 109.808 45.0723 109.808 40.8312V31.7183C109.808 31.0577 109.272 30.5221 108.612 30.5221H107.883C107.625 30.5221 107.415 30.7315 107.415 30.9897V31.3969ZM104.523 39.3957C103.651 39.3218 102.838 38.9232 102.246 38.2787C101.654 37.6343 101.326 36.7911 101.326 35.9159C101.326 35.0408 101.654 34.1976 102.246 33.5531C102.838 32.9087 103.651 32.5101 104.523 32.4361C104.957 32.4573 105.382 32.5656 105.773 32.7546C106.164 32.9436 106.513 33.2094 106.799 33.5361C107.085 33.8629 107.303 34.2439 107.439 34.6565C107.506 34.8625 107.553 35.0743 107.578 35.2887C107.629 35.7184 107.628 36.1571 107.575 36.5864C107.548 36.7978 107.501 37.0065 107.433 37.2094C107.296 37.6186 107.078 37.9958 106.791 38.3187C106.505 38.6415 106.157 38.9033 105.767 39.0884C105.377 39.2734 104.954 39.378 104.523 39.3957ZM137.437 24.4328C134.104 24.4328 131.401 27.1353 131.401 30.4689V40.0503C131.401 40.7458 131.965 41.3096 132.66 41.3096C133.356 41.3096 133.92 40.7458 133.92 40.0503V38.1126C133.92 36.3469 135.351 34.9155 137.117 34.9155H137.437C138.15 34.9546 138.863 34.848 139.532 34.6022C140.202 34.3565 140.815 33.9767 141.333 33.4862C141.851 32.9956 142.264 32.4046 142.546 31.7492C142.828 31.0937 142.974 30.3877 142.974 29.6742C142.974 28.9606 142.828 28.2546 142.546 27.5992C142.264 26.9437 141.851 26.3527 141.333 25.8622C140.815 25.3716 140.202 24.9919 139.532 24.7461C138.863 24.5004 138.15 24.3938 137.437 24.4328ZM137.502 32.5668H136.812C135.215 32.5668 133.92 31.2718 133.92 29.6742C133.92 28.0767 135.215 26.7817 136.812 26.7817H137.502C137.887 26.7737 138.27 26.8426 138.628 26.9844C138.986 27.1262 139.312 27.338 139.587 27.6074C139.862 27.8768 140.08 28.1983 140.229 28.5532C140.379 28.9081 140.455 29.2893 140.455 29.6742C140.455 30.0592 140.379 30.4403 140.229 30.7952C140.08 31.1501 139.862 31.4717 139.587 31.7411C139.312 32.0105 138.986 32.2223 138.628 32.3641C138.27 32.5059 137.887 32.5748 137.502 32.5668ZM153.07 30.1432C152.151 30.0895 151.236 30.3054 150.437 30.7644C150.022 31.0028 149.648 31.3015 149.326 31.6486C148.842 32.1706 149.135 32.9605 149.792 33.2348C150.371 33.4767 151.027 33.2036 151.542 32.8441C151.618 32.7913 151.696 32.7427 151.778 32.6988C151.97 32.5958 152.173 32.52 152.383 32.4727C152.86 32.365 153.366 32.3627 153.844 32.4625C154.223 32.5416 154.582 32.7111 154.886 32.961C155.383 33.368 155.698 33.9553 155.762 34.5941C155.762 34.6729 155.678 34.7235 155.608 34.6887C154.839 34.3107 153.993 34.1145 153.135 34.1165C150.725 34.1165 148.272 35.4409 148.272 37.9161C148.295 38.4378 148.423 38.9494 148.648 39.4207C148.873 39.8919 149.19 40.3132 149.581 40.6595C149.972 41.0058 150.428 41.27 150.923 41.4365C151.418 41.6031 151.941 41.6685 152.462 41.6289C153.096 41.6662 153.729 41.5328 154.294 41.2426C154.85 40.9571 155.321 40.5301 155.659 40.0048C155.669 39.9887 155.687 39.9788 155.706 39.9788C155.737 39.9788 155.762 40.0039 155.762 40.0348V40.6302C155.762 40.9899 156.054 41.2815 156.414 41.2815H156.978C157.65 41.2815 158.194 40.7372 158.194 40.0657V34.8113C158.194 31.815 155.958 30.1432 153.07 30.1432ZM152.766 39.3925C151.941 39.3925 150.79 38.9801 150.79 37.9595C150.79 36.6569 152.223 36.1574 153.461 36.1574C153.53 36.1555 153.6 36.1553 153.669 36.1567C154.992 36.1829 155.752 37.7385 154.764 38.6187C154.214 39.1096 153.504 39.3845 152.766 39.3925ZM167.916 30.5122C167.395 30.5122 166.927 30.8309 166.736 31.3157L164.181 37.7885C164.171 37.8131 164.148 37.8292 164.121 37.8292C164.095 37.8292 164.071 37.8134 164.062 37.7893L161.395 31.2774C161.206 30.8146 160.755 30.5122 160.255 30.5122C159.366 30.5122 158.769 31.4258 159.127 32.24L162.301 39.463C162.658 40.2751 162.654 41.2004 162.29 42.0093L161.058 44.7447C160.702 45.5341 161.28 46.4273 162.145 46.4273C162.62 46.4273 163.05 46.1458 163.239 45.7105L169.08 32.2884C169.445 31.4499 168.831 30.5122 167.916 30.5122ZM144.363 40.0504C144.363 40.7458 144.927 41.3096 145.623 41.3096C146.318 41.3096 146.882 40.7458 146.882 40.0504V25.6921C146.882 24.9966 146.318 24.4328 145.623 24.4328C144.927 24.4328 144.363 24.9966 144.363 25.6921V40.0504Z"/>
</mask>
<path d="M91.9829 30.1742C90.8482 30.1785 89.7402 30.5189 88.7989 31.1524C87.8575 31.786 87.125 32.6842 86.6937 33.7338C86.2625 34.7833 86.1519 35.9371 86.3759 37.0495C86.5999 38.1618 87.1485 39.1829 87.9523 39.9837C88.7562 40.7845 89.7793 41.3292 90.8925 41.549C92.0057 41.7687 93.1591 41.6538 94.207 41.2185C95.2549 40.7833 96.1503 40.0473 96.7803 39.1036C97.4102 38.1598 97.7464 37.0506 97.7464 35.9159C97.7576 35.1569 97.6159 34.4035 97.33 33.7004C97.044 32.9973 96.6195 32.3589 96.0818 31.8233C95.5441 31.2876 94.9041 30.8655 94.1999 30.5822C93.4957 30.2989 92.7418 30.1602 91.9829 30.1742ZM91.9829 39.3957C91.2841 39.4456 90.5865 39.2839 89.9809 38.9317C89.3753 38.5795 88.8898 38.0531 88.5875 37.4211C88.2853 36.7891 88.1803 36.0807 88.2863 35.3882C88.3923 34.6957 88.7043 34.0512 89.1817 33.5385C89.6591 33.0258 90.2798 32.6687 90.963 32.5137C91.6463 32.3588 92.3603 32.4131 93.0122 32.6696C93.6641 32.9261 94.2237 33.373 94.6181 33.952C95.0125 34.531 95.2234 35.2153 95.2234 35.9159C95.2446 36.3584 95.1771 36.8008 95.0247 37.2169C94.8724 37.633 94.6384 38.0144 94.3364 38.3386C94.0344 38.6629 93.6707 38.9235 93.2665 39.105C92.8623 39.2866 92.4259 39.3854 91.9829 39.3957ZM79.4099 30.1742C78.2752 30.1785 77.1672 30.5189 76.2258 31.1524C75.2844 31.7859 74.5519 32.6841 74.1206 33.7337C73.6893 34.7832 73.5787 35.937 73.8027 37.0494C74.0267 38.1617 74.5753 39.1828 75.3791 39.9836C76.183 40.7845 77.2061 41.3292 78.3193 41.549C79.4325 41.7687 80.5859 41.6538 81.6338 41.2185C82.6817 40.7833 83.5772 40.0474 84.2071 39.1036C84.8371 38.1598 85.1733 37.0506 85.1732 35.9159C85.1844 35.1569 85.0428 34.4035 84.7568 33.7004C84.4708 32.9974 84.0464 32.359 83.5087 31.8233C82.971 31.2876 82.331 30.8656 81.6268 30.5823C80.9227 30.299 80.1687 30.1602 79.4099 30.1742ZM79.4099 39.3957C78.7111 39.4456 78.0135 39.2839 77.4079 38.9317C76.8023 38.5795 76.3167 38.0531 76.0145 37.4211C75.7122 36.7891 75.6073 36.0807 75.7132 35.3882C75.8192 34.6957 76.1312 34.0512 76.6087 33.5385C77.0861 33.0258 77.7068 32.6687 78.39 32.5137C79.0732 32.3588 79.7873 32.4131 80.4392 32.6696C81.0911 32.9261 81.6506 33.373 82.045 33.952C82.4394 34.531 82.6504 35.2153 82.6504 35.9159C82.6716 36.3584 82.6041 36.8008 82.4517 37.2169C82.2994 37.633 82.0654 38.0144 81.7634 38.3386C81.4614 38.6629 81.0976 38.9235 80.6934 39.105C80.2893 39.2866 79.8528 39.3854 79.4099 39.3957ZM65.6714 31.9359C64.9988 31.9359 64.4535 32.4812 64.4535 33.1538C64.4535 33.8265 64.9988 34.3717 65.6714 34.3717H67.2609C68.8925 34.3717 70.2144 35.8658 69.2039 37.1469C69.1251 37.2468 69.0423 37.3441 68.9556 37.4384C68.3715 38.0338 67.6691 38.5001 66.8936 38.8073C66.1182 39.1144 65.2869 39.2556 64.4535 39.2217C62.7498 39.1987 61.1237 38.5057 59.9271 37.2927C58.7304 36.0798 58.0595 34.4444 58.0595 32.7405C58.0595 31.0367 58.7304 29.4013 59.9271 28.1884C61.1237 26.9754 62.7498 26.2824 64.4535 26.2594C65.6865 26.2433 66.8868 26.5942 67.9076 27.2541C68.4675 27.6161 69.2246 27.6216 69.6961 27.1501C70.1753 26.6709 70.1777 25.8849 69.6323 25.4825C69.0554 25.0567 68.4255 24.7047 67.7572 24.436C66.7077 24.0139 65.5845 23.8057 64.4535 23.8234C63.2716 23.8062 62.098 24.0242 61.0011 24.4646C59.9041 24.905 58.9057 25.5591 58.0638 26.3888C57.2219 27.2185 56.5533 28.2074 56.097 29.2978C55.6407 30.3882 55.4057 31.5585 55.4057 32.7405C55.4057 33.9226 55.6407 35.0929 56.097 36.1833C56.5533 37.2737 57.2219 38.2626 58.0638 39.0923C58.9057 39.922 59.9041 40.5761 61.0011 41.0165C62.098 41.4569 63.2716 41.6749 64.4535 41.6577C65.6084 41.7055 66.7603 41.5073 67.8327 41.0761C68.9051 40.6449 69.8735 39.9906 70.6738 39.1565C72.0945 37.6057 72.8518 35.5604 72.7835 33.4583C72.7932 32.5717 72.0092 31.9359 71.1225 31.9359H65.6714ZM125.619 33.828C125.274 32.788 124.618 31.8794 123.738 31.2257C122.859 30.572 121.799 30.2049 120.704 30.1742C119.966 30.1788 119.237 30.3329 118.561 30.6273C117.884 30.9216 117.275 31.3501 116.768 31.8868C116.262 32.4235 115.87 33.0572 115.616 33.7497C115.361 34.4422 115.25 35.1791 115.289 35.9159C115.272 36.6708 115.408 37.4212 115.688 38.1225C115.968 38.8238 116.386 39.4614 116.918 39.9974C117.45 40.5333 118.084 40.9566 118.783 41.2418C119.483 41.5271 120.232 41.6685 120.987 41.6577C121.933 41.6629 122.865 41.4331 123.7 40.989C124.196 40.7255 124.648 40.3915 125.043 39.999C125.493 39.5518 125.344 38.8277 124.816 38.4757C124.27 38.1121 123.537 38.3007 123.02 38.7035C122.891 38.8041 122.754 38.8952 122.611 38.9759C122.115 39.2542 121.555 39.3989 120.987 39.3957C120.402 39.4181 119.824 39.2642 119.327 38.954C118.517 38.4473 118.93 37.3551 119.814 36.9897L125.231 34.7492C125.591 34.6003 125.764 34.1896 125.619 33.828ZM118.946 35.2618C118.379 35.4973 117.756 35.0896 117.956 34.5092C118.093 34.1134 118.308 33.749 118.587 33.4371C118.867 33.1252 119.205 32.8722 119.584 32.6928C119.962 32.5135 120.373 32.4115 120.791 32.3927C121.227 32.364 121.661 32.4642 122.04 32.6808C122.65 33.0292 122.37 33.84 121.722 34.1093L118.946 35.2618ZM111.548 40.0482C111.548 40.7449 112.113 41.3096 112.809 41.3096C113.506 41.3096 114.071 40.7449 114.071 40.0482V25.694C114.071 24.9973 113.506 24.4326 112.809 24.4326C112.113 24.4326 111.548 24.9973 111.548 25.694V40.0482ZM107.415 31.3969C107.415 31.4303 107.388 31.4574 107.355 31.4574C107.338 31.4574 107.322 31.4503 107.311 31.4379C106.93 31.0304 106.469 30.7072 105.956 30.4893C105.434 30.268 104.872 30.1606 104.305 30.1742C102.825 30.2372 101.426 30.8697 100.401 31.9396C99.3752 33.0095 98.8028 34.4341 98.8028 35.9159C98.8028 37.3978 99.3752 38.8224 100.401 39.8923C101.426 40.9622 102.825 41.5946 104.305 41.6577C104.874 41.6728 105.439 41.5639 105.961 41.3385C106.475 41.1167 106.935 40.7874 107.311 40.3727C107.322 40.3601 107.338 40.3528 107.355 40.3528C107.389 40.3528 107.415 40.3796 107.415 40.4128V41.1792C107.415 43.3759 106.241 44.5503 104.349 44.5503C103.718 44.5352 103.106 44.3327 102.591 43.9686C102.408 43.8392 102.24 43.6914 102.09 43.5283C101.641 43.0414 100.951 42.7161 100.339 42.9705C99.7422 43.2187 99.4487 43.913 99.8155 44.4454C100.207 45.014 100.705 45.5063 101.286 45.8933C102.193 46.4977 103.259 46.8177 104.349 46.8122C107.307 46.8122 109.808 45.0723 109.808 40.8312V31.7183C109.808 31.0577 109.272 30.5221 108.612 30.5221H107.883C107.625 30.5221 107.415 30.7315 107.415 30.9897V31.3969ZM104.523 39.3957C103.651 39.3218 102.838 38.9232 102.246 38.2787C101.654 37.6343 101.326 36.7911 101.326 35.9159C101.326 35.0408 101.654 34.1976 102.246 33.5531C102.838 32.9087 103.651 32.5101 104.523 32.4361C104.957 32.4573 105.382 32.5656 105.773 32.7546C106.164 32.9436 106.513 33.2094 106.799 33.5361C107.085 33.8629 107.303 34.2439 107.439 34.6565C107.506 34.8625 107.553 35.0743 107.578 35.2887C107.629 35.7184 107.628 36.1571 107.575 36.5864C107.548 36.7978 107.501 37.0065 107.433 37.2094C107.296 37.6186 107.078 37.9958 106.791 38.3187C106.505 38.6415 106.157 38.9033 105.767 39.0884C105.377 39.2734 104.954 39.378 104.523 39.3957ZM137.437 24.4328C134.104 24.4328 131.401 27.1353 131.401 30.4689V40.0503C131.401 40.7458 131.965 41.3096 132.66 41.3096C133.356 41.3096 133.92 40.7458 133.92 40.0503V38.1126C133.92 36.3469 135.351 34.9155 137.117 34.9155H137.437C138.15 34.9546 138.863 34.848 139.532 34.6022C140.202 34.3565 140.815 33.9767 141.333 33.4862C141.851 32.9956 142.264 32.4046 142.546 31.7492C142.828 31.0937 142.974 30.3877 142.974 29.6742C142.974 28.9606 142.828 28.2546 142.546 27.5992C142.264 26.9437 141.851 26.3527 141.333 25.8622C140.815 25.3716 140.202 24.9919 139.532 24.7461C138.863 24.5004 138.15 24.3938 137.437 24.4328ZM137.502 32.5668H136.812C135.215 32.5668 133.92 31.2718 133.92 29.6742C133.92 28.0767 135.215 26.7817 136.812 26.7817H137.502C137.887 26.7737 138.27 26.8426 138.628 26.9844C138.986 27.1262 139.312 27.338 139.587 27.6074C139.862 27.8768 140.08 28.1983 140.229 28.5532C140.379 28.9081 140.455 29.2893 140.455 29.6742C140.455 30.0592 140.379 30.4403 140.229 30.7952C140.08 31.1501 139.862 31.4717 139.587 31.7411C139.312 32.0105 138.986 32.2223 138.628 32.3641C138.27 32.5059 137.887 32.5748 137.502 32.5668ZM153.07 30.1432C152.151 30.0895 151.236 30.3054 150.437 30.7644C150.022 31.0028 149.648 31.3015 149.326 31.6486C148.842 32.1706 149.135 32.9605 149.792 33.2348C150.371 33.4767 151.027 33.2036 151.542 32.8441C151.618 32.7913 151.696 32.7427 151.778 32.6988C151.97 32.5958 152.173 32.52 152.383 32.4727C152.86 32.365 153.366 32.3627 153.844 32.4625C154.223 32.5416 154.582 32.7111 154.886 32.961C155.383 33.368 155.698 33.9553 155.762 34.5941C155.762 34.6729 155.678 34.7235 155.608 34.6887C154.839 34.3107 153.993 34.1145 153.135 34.1165C150.725 34.1165 148.272 35.4409 148.272 37.9161C148.295 38.4378 148.423 38.9494 148.648 39.4207C148.873 39.8919 149.19 40.3132 149.581 40.6595C149.972 41.0058 150.428 41.27 150.923 41.4365C151.418 41.6031 151.941 41.6685 152.462 41.6289C153.096 41.6662 153.729 41.5328 154.294 41.2426C154.85 40.9571 155.321 40.5301 155.659 40.0048C155.669 39.9887 155.687 39.9788 155.706 39.9788C155.737 39.9788 155.762 40.0039 155.762 40.0348V40.6302C155.762 40.9899 156.054 41.2815 156.414 41.2815H156.978C157.65 41.2815 158.194 40.7372 158.194 40.0657V34.8113C158.194 31.815 155.958 30.1432 153.07 30.1432ZM152.766 39.3925C151.941 39.3925 150.79 38.9801 150.79 37.9595C150.79 36.6569 152.223 36.1574 153.461 36.1574C153.53 36.1555 153.6 36.1553 153.669 36.1567C154.992 36.1829 155.752 37.7385 154.764 38.6187C154.214 39.1096 153.504 39.3845 152.766 39.3925ZM167.916 30.5122C167.395 30.5122 166.927 30.8309 166.736 31.3157L164.181 37.7885C164.171 37.8131 164.148 37.8292 164.121 37.8292C164.095 37.8292 164.071 37.8134 164.062 37.7893L161.395 31.2774C161.206 30.8146 160.755 30.5122 160.255 30.5122C159.366 30.5122 158.769 31.4258 159.127 32.24L162.301 39.463C162.658 40.2751 162.654 41.2004 162.29 42.0093L161.058 44.7447C160.702 45.5341 161.28 46.4273 162.145 46.4273C162.62 46.4273 163.05 46.1458 163.239 45.7105L169.08 32.2884C169.445 31.4499 168.831 30.5122 167.916 30.5122ZM144.363 40.0504C144.363 40.7458 144.927 41.3096 145.623 41.3096C146.318 41.3096 146.882 40.7458 146.882 40.0504V25.6921C146.882 24.9966 146.318 24.4328 145.623 24.4328C144.927 24.4328 144.363 24.9966 144.363 25.6921V40.0504Z" fill="white" stroke="white" stroke-width="2.69999" mask="url(#path-11-inside-1_0_2001)"/>
<path d="M14.1378 12.8826V12.8623L14.1366 12.842C14.118 12.532 14.1708 12.2248 14.2878 11.9429L30.1553 27.8108L14.2876 43.6784C14.1707 43.3966 14.1179 43.0896 14.1366 42.7798L14.1378 42.7595V42.7391V12.8826ZM13.8088 44.1572C13.809 44.157 13.8092 44.1568 13.8094 44.1566L13.8088 44.1572Z" fill="url(#paint5_linear_0_2001)" stroke="#090B0B" stroke-width="1.34999"/>
<path d="M42.886 26.4492L42.8861 26.4492C43.7067 26.9154 43.9596 27.4345 43.9596 27.8113C43.9596 28.1881 43.7066 28.7074 42.8859 29.1739L36.6013 32.7448L31.6698 27.8109L36.6021 22.8786L42.886 26.4492Z" fill="url(#paint6_linear_0_2001)" stroke="#090B0B" stroke-width="1.34999"/>
<path d="M32.9009 30.7541C34.2139 32.0672 33.9161 34.2699 32.3016 35.1872L17.0717 43.8408C16.9373 43.9171 16.7976 44.0057 16.6763 44.0827C16.6301 44.1121 16.5865 44.1397 16.547 44.1643C16.3885 44.2629 16.2559 44.3382 16.1262 44.3924C15.9279 44.4751 15.713 44.5156 15.4953 44.5091C15.4818 44.5087 15.4716 44.5077 15.4642 44.5065C15.4627 44.501 15.4611 44.4938 15.4598 44.4847C15.445 44.3823 15.4875 44.1904 15.6413 44.0366L28.9241 30.754C30.0222 29.6558 31.8028 29.6558 32.9009 30.7541ZM15.447 44.5022C15.4471 44.5021 15.448 44.5024 15.4496 44.5033C15.4478 44.5027 15.447 44.5022 15.447 44.5022ZM15.4693 44.5209C15.4697 44.5215 15.4699 44.5219 15.4699 44.5219L15.4693 44.5209Z" fill="url(#paint7_linear_0_2001)" stroke="#090B0B" stroke-width="1.34999"/>
<path d="M32.3016 20.4345C33.9161 21.3518 34.2139 23.5545 32.9009 24.8677C31.8028 25.9659 30.0222 25.966 28.924 24.8678L15.6413 11.5851C15.4875 11.4313 15.445 11.2394 15.4598 11.137C15.4611 11.1279 15.4627 11.1207 15.4642 11.1152C15.4716 11.114 15.4818 11.1129 15.4953 11.1126C15.713 11.1061 15.9279 11.1465 16.1262 11.2293C16.2559 11.2834 16.3885 11.3588 16.547 11.4574C16.5865 11.482 16.6301 11.5096 16.6764 11.539C16.7976 11.6159 16.9373 11.7046 17.0717 11.7809L32.3016 20.4345ZM15.4699 11.0998C15.4699 11.0998 15.4697 11.1002 15.4692 11.1009L15.4699 11.0998ZM15.4496 11.1184C15.448 11.1193 15.4471 11.1196 15.447 11.1195C15.447 11.1195 15.4478 11.119 15.4496 11.1184Z" fill="url(#paint8_linear_0_2001)" stroke="#090B0B" stroke-width="1.34999"/>
<path opacity="0.2" d="M14.1868 44.6358L14.1375 44.5865L14.1935 44.6424L14.1868 44.6358Z" fill="#090B0B" stroke="#090B0B" stroke-width="1.34999"/>
<g opacity="0.12">
<mask id="path-17-inside-2_0_2001" fill="white">
<path d="M14.0876 44.4392C13.645 43.9099 13.4214 43.2314 13.4628 42.5426V42.7398C13.4229 43.4041 13.6294 44.0588 14.0412 44.5794C14.0657 44.6104 14.1117 44.6124 14.1396 44.5844C14.1663 44.5578 14.1658 44.5144 14.1387 44.4883L14.0876 44.4392Z"/>
</mask>
<path d="M14.0876 44.4392C13.645 43.9099 13.4214 43.2314 13.4628 42.5426V42.7398C13.4229 43.4041 13.6294 44.0588 14.0412 44.5794C14.0657 44.6104 14.1117 44.6124 14.1396 44.5844C14.1663 44.5578 14.1658 44.5144 14.1387 44.4883L14.0876 44.4392Z" fill="#090B0B"/>
<path d="M14.0876 44.4392L13.052 45.3052L13.0991 45.3616L13.1522 45.4126L14.0876 44.4392ZM13.4628 42.5426H14.8128L12.1153 42.4616L13.4628 42.5426ZM13.4628 42.7398L14.8104 42.8208L14.8128 42.7804V42.7398H13.4628ZM14.1387 44.4883L13.2032 45.4617L14.1387 44.4883ZM14.0412 44.5794L12.9824 45.4169L14.0412 44.5794ZM15.1232 43.5732C14.9016 43.3082 14.7897 42.9684 14.8104 42.6236L12.1153 42.4616C12.0532 43.4943 12.3883 44.5116 13.052 45.3052L15.1232 43.5732ZM12.1128 42.5426V42.7398H14.8128V42.5426H12.1128ZM12.1153 42.6588C12.0554 43.6548 12.365 44.6364 12.9824 45.4169L15.0999 43.7418C14.8938 43.4812 14.7904 43.1534 14.8104 42.8208L12.1153 42.6588ZM15.0741 43.5149L15.023 43.4659L13.1522 45.4126L13.2032 45.4617L15.0741 43.5149ZM15.0942 45.539C15.6555 44.9777 15.6464 44.065 15.0741 43.5149L13.2032 45.4617C12.6853 44.9639 12.6771 44.1378 13.185 43.6298L15.0942 45.539ZM12.9824 45.4169C13.5234 46.1007 14.5129 46.1203 15.0942 45.539L13.185 43.6298C13.7104 43.1044 14.608 43.12 15.0999 43.7418L12.9824 45.4169Z" fill="#090B0B" mask="url(#path-17-inside-2_0_2001)"/>
</g>
<g opacity="0.12">
<mask id="path-19-inside-3_0_2001" fill="white">
<path d="M-nan -nanL43.2195 29.5628L36.5863 33.3321C36.5371 33.36 36.5281 33.4271 36.5681 33.4671C36.5954 33.4943 36.6374 33.5 36.6709 33.4809L43.2195 29.76C43.608 29.5914 43.9443 29.3217 44.1932 28.979C44.4421 28.6363 44.5945 28.2331 44.6347 27.8115C44.5512 28.1933 44.3798 28.5504 44.1341 28.8544C43.8884 29.1584 43.5753 29.401 43.2195 29.5628L-nan -nanZ"/>
</mask>
<path d="M-nan -nanL43.2195 29.5628L36.5863 33.3321C36.5371 33.36 36.5281 33.4271 36.5681 33.4671C36.5954 33.4943 36.6374 33.5 36.6709 33.4809L43.2195 29.76C43.608 29.5914 43.9443 29.3217 44.1932 28.979C44.4421 28.6363 44.5945 28.2331 44.6347 27.8115C44.5512 28.1933 44.3798 28.5504 44.1341 28.8544C43.8884 29.1584 43.5753 29.401 43.2195 29.5628L-nan -nanZ" fill="#090B0B"/>
<path d="M43.2195 29.76L42.682 28.5216L42.6156 28.5505L42.5526 28.5863L43.2195 29.76ZM44.6347 27.8115L45.9786 27.9394L43.3159 27.523L44.6347 27.8115ZM36.6709 33.4809L36.004 32.3072L36.6709 33.4809ZM36.5863 33.3321L35.9194 32.1583L36.5863 33.3321ZM42.5525 28.3891L35.9194 32.1583L37.2533 34.5058L43.8864 30.7365L42.5525 28.3891ZM37.3379 34.6547L43.8864 30.9338L42.5526 28.5863L36.004 32.3072L37.3379 34.6547ZM43.7569 30.9984C44.3669 30.7337 44.8947 30.3103 45.2855 29.7723L43.1009 28.1857C42.9938 28.3331 42.8492 28.4491 42.682 28.5216L43.7569 30.9984ZM45.2855 29.7723C45.6762 29.2343 45.9156 28.6014 45.9786 27.9394L43.2908 27.6835C43.2735 27.8649 43.2079 28.0383 43.1009 28.1857L45.2855 29.7723ZM43.3159 27.523C43.2772 27.6998 43.1978 27.8652 43.0841 28.0059L45.1841 29.7029C45.5617 29.2357 45.8251 28.6868 45.9535 28.0999L43.3159 27.523ZM43.0841 28.0059C42.9703 28.1467 42.8253 28.259 42.6606 28.3339L43.7784 30.7917C44.3252 30.543 44.8066 30.1702 45.1841 29.7029L43.0841 28.0059ZM35.614 34.4222C36.0709 34.8786 36.7764 34.9737 37.3379 34.6547L36.004 32.3072C36.4985 32.0262 37.1198 32.11 37.5222 32.512L35.614 34.4222ZM35.9194 32.1583C35.0948 32.6269 34.9431 33.7519 35.614 34.4222L37.5222 32.512C38.1131 33.1023 37.9795 34.0931 37.2533 34.5058L35.9194 32.1583Z" fill="#090B0B" mask="url(#path-19-inside-3_0_2001)"/>
</g>
<g opacity="0.25">
<mask id="path-21-inside-4_0_2001" fill="white">
<path d="M16.893 11.1009L43.2195 26.0589C43.5754 26.2207 43.8887 26.4633 44.1344 26.7674C44.38 27.0716 44.5514 27.4289 44.6347 27.8109C44.5948 27.3891 44.4425 26.9857 44.1935 26.6428C43.9446 26.3 43.6082 26.0302 43.2195 25.8616L16.893 10.9037C15.0062 9.83168 13.4628 10.7221 13.4628 12.8832V13.0804C13.4628 10.9195 15.0062 10.0291 16.893 11.1009Z"/>
</mask>
<path d="M16.893 11.1009L43.2195 26.0589C43.5754 26.2207 43.8887 26.4633 44.1344 26.7674C44.38 27.0716 44.5514 27.4289 44.6347 27.8109C44.5948 27.3891 44.4425 26.9857 44.1935 26.6428C43.9446 26.3 43.6082 26.0302 43.2195 25.8616L16.893 10.9037C15.0062 9.83168 13.4628 10.7221 13.4628 12.8832V13.0804C13.4628 10.9195 15.0062 10.0291 16.893 11.1009Z" fill="#090B0B"/>
<path d="M16.893 11.1009L17.5599 9.92718L17.5598 9.92715L16.893 11.1009ZM43.2195 26.0589L42.5526 27.2326L42.6055 27.2627L42.6608 27.2878L43.2195 26.0589ZM44.6347 27.8109L43.3157 28.0986L45.9787 27.6838L44.6347 27.8109ZM43.2195 25.8616L42.5526 27.0354L42.6158 27.0713L42.6825 27.1002L43.2195 25.8616ZM16.893 10.9037L16.2261 12.0775L16.2261 12.0775L16.893 10.9037ZM16.2261 12.2747L42.5526 27.2326L43.8864 24.8851L17.5599 9.92718L16.2261 12.2747ZM42.6608 27.2878C42.8255 27.3627 42.9705 27.475 43.0842 27.6157L45.1846 25.9192C44.8069 25.4516 44.3253 25.0786 43.7781 24.8299L42.6608 27.2878ZM43.0842 27.6157C43.1979 27.7565 43.2771 27.9218 43.3157 28.0986L45.9537 27.5232C45.8256 26.936 45.5622 26.3867 45.1846 25.9192L43.0842 27.6157ZM45.9787 27.6838C45.9161 27.0215 45.6768 26.3881 45.286 25.8497L43.1011 27.436C43.2081 27.5833 43.2735 27.7567 43.2907 27.9379L45.9787 27.6838ZM45.286 25.8497C44.8951 25.3113 44.3669 24.8877 43.7565 24.623L42.6825 27.1002C42.8495 27.1727 42.9941 27.2886 43.1011 27.436L45.286 25.8497ZM43.8864 24.6879L17.5599 9.72995L16.2261 12.0775L42.5526 27.0354L43.8864 24.6879ZM17.5599 9.72995C16.3644 9.05067 14.9731 8.83232 13.7956 9.51176C12.6154 10.1928 12.1128 11.5083 12.1128 12.8832H14.8128C14.8128 12.0971 15.0819 11.8868 15.1451 11.8503C15.211 11.8123 15.5349 11.6847 16.2261 12.0775L17.5599 9.72995ZM12.1128 12.8832V13.0804H14.8128V12.8832H12.1128ZM14.8128 13.0804C14.8128 12.2944 15.0819 12.0842 15.1451 12.0477C15.2111 12.0096 15.5349 11.882 16.2261 12.2747L17.5598 9.92715C16.3643 9.24795 14.9731 9.02968 13.7956 9.70909C12.6155 10.3901 12.1128 11.7055 12.1128 13.0804H14.8128Z" fill="#090B0B" mask="url(#path-21-inside-4_0_2001)"/>
</g>
</g>
<defs>
<linearGradient id="paint0_linear_0_2001" x1="74.1051" y1="10.2596" x2="74.1051" y2="18.3596" gradientUnits="userSpaceOnUse">
<stop stop-color="white"/>
<stop offset="1" stop-color="white" stop-opacity="0"/>
</linearGradient>
<linearGradient id="paint1_linear_0_2001" x1="81.4359" y1="10.2596" x2="81.4359" y2="18.3596" gradientUnits="userSpaceOnUse">
<stop stop-color="white"/>
<stop offset="1" stop-color="white" stop-opacity="0"/>
</linearGradient>
<linearGradient id="paint2_linear_0_2001" x1="86.0521" y1="10.2596" x2="86.0521" y2="18.3596" gradientUnits="userSpaceOnUse">
<stop stop-color="white"/>
<stop offset="1" stop-color="white" stop-opacity="0"/>
</linearGradient>
<linearGradient id="paint3_linear_0_2001" x1="96.4025" y1="10.0784" x2="96.4025" y2="18.5403" gradientUnits="userSpaceOnUse">
<stop stop-color="white"/>
<stop offset="1" stop-color="white" stop-opacity="0"/>
</linearGradient>
<linearGradient id="paint4_linear_0_2001" x1="105.148" y1="10.2596" x2="105.148" y2="18.3596" gradientUnits="userSpaceOnUse">
<stop stop-color="white"/>
<stop offset="1" stop-color="white" stop-opacity="0"/>
</linearGradient>
<linearGradient id="paint5_linear_0_2001" x1="29.4294" y1="12.5677" x2="6.77324" y2="35.2239" gradientUnits="userSpaceOnUse">
<stop stop-color="#00A0FF"/>
<stop offset="0.00657" stop-color="#00A1FF"/>
<stop offset="0.2601" stop-color="#00BEFF"/>
<stop offset="0.5122" stop-color="#00D2FF"/>
<stop offset="0.7604" stop-color="#00DFFF"/>
<stop offset="1" stop-color="#00E3FF"/>
</linearGradient>
<linearGradient id="paint6_linear_0_2001" x1="45.6761" y1="27.8115" x2="13.0104" y2="27.8115" gradientUnits="userSpaceOnUse">
<stop stop-color="#FFE000"/>
<stop offset="0.4087" stop-color="#FFBD00"/>
<stop offset="0.7754" stop-color="#FFA500"/>
<stop offset="1" stop-color="#FF9C00"/>
</linearGradient>
<linearGradient id="paint7_linear_0_2001" x1="33.5161" y1="30.9093" x2="2.79256" y2="61.6328" gradientUnits="userSpaceOnUse">
<stop stop-color="#FF3A44"/>
<stop offset="1" stop-color="#C31162"/>
</linearGradient>
<linearGradient id="paint8_linear_0_2001" x1="9.85121" y1="1.04754" x2="23.5705" y2="14.7669" gradientUnits="userSpaceOnUse">
<stop stop-color="#32A071"/>
<stop offset="0.0685" stop-color="#2DA771"/>
<stop offset="0.4762" stop-color="#15CF74"/>
<stop offset="0.8009" stop-color="#06E775"/>
<stop offset="1" stop-color="#00F076"/>
</linearGradient>
<clipPath id="clip0_0_2001">
<rect y="0.80957" width="182.249" height="54" rx="8" fill="white"/>
</clipPath>
</defs>
</svg>
